<svg width="32" height="32" viewBox="0 0 32 32" fill="none" xmlns="http://www.w3.org/2000/svg">
<path fill-rule="evenodd" clip-rule="evenodd" d="M8.88845 8.88889C8.39754 9.37981 8.39754 10.1757 8.88845 10.6667L21.3329 23.1111C21.8238 23.602 22.6198 23.602 23.1107 23.1111C23.6016 22.6202 23.6016 21.8243 23.1107 21.3333L10.6662 8.88889C10.1753 8.39797 9.37937 8.39797 8.88845 8.88889Z" fill="#0F0F21"/>
<path fill-rule="evenodd" clip-rule="evenodd" d="M23.1111 8.88888C22.6202 8.39796 21.8243 8.39796 21.3333 8.88888L8.88889 21.3333C8.39797 21.8242 8.39797 22.6202 8.88889 23.1111C9.37981 23.602 10.1757 23.602 10.6667 23.1111L23.1111 10.6667C23.602 10.1757 23.602 9.3798 23.1111 8.88888Z" fill="#0F0F21"/>
</svg>
