<svg width="28" height="32" viewBox="0 0 37 42" fill="none" xmlns="http://www.w3.org/2000/svg">
<path d="M1.70591 11.5806C1.59231 11.5796 1.48054 11.5567 1.37927 11.5136C1.27801 11.4706 1.18999 11.4086 1.12207 11.3325C1.05415 11.2564 1.00817 11.1682 0.987685 11.0748C0.967204 10.9815 0.972782 10.8854 1.00399 10.7941C1.32965 9.86093 1.76505 8.95701 2.30383 8.09556C2.85073 7.21664 3.49849 6.38419 4.238 5.60997C4.98066 4.84055 5.80747 4.13062 6.70771 3.48939C7.60582 2.86284 8.57388 2.30988 9.59857 1.83812C10.6167 1.36571 11.6899 0.981324 12.8014 0.690924C13.9328 0.396487 15.0961 0.195634 16.2746 0.0912539L18.3075 0C22.72 0.00583707 26.9759 1.36677 30.2661 3.82399C30.3775 3.90606 30.4562 4.01464 30.4916 4.13516C30.527 4.25567 30.5175 4.38236 30.4643 4.49822C30.4111 4.61408 30.3168 4.71357 30.194 4.78336C30.0712 4.85314 29.9258 4.88987 29.7774 4.88862C29.5984 4.8891 29.4258 4.83325 29.2938 4.73219C29.0443 4.54533 28.7739 4.37586 28.5243 4.20204C25.6164 2.26466 22.0055 1.21323 18.2867 1.22107L16.5137 1.30363C15.4112 1.40372 14.3229 1.59291 13.2641 1.86854C12.2449 2.14076 11.2594 2.49438 10.3213 2.92448C9.36675 3.35181 8.46617 3.85844 7.6332 4.4367C6.79478 5.01894 6.03152 5.67286 5.35587 6.3878C4.21359 7.56338 3.32348 8.89538 2.72498 10.3248C2.6002 10.5985 2.47541 10.8766 2.38182 11.1504C2.33866 11.2729 2.24982 11.3807 2.12824 11.4581C2.00666 11.5355 1.8587 11.5784 1.70591 11.5806Z" fill="#2F2F2F"/>
<path d="M35.356 28.2758C35.1736 28.2521 35.0086 28.1719 34.894 28.0511C34.7793 27.9303 34.7233 27.7777 34.7373 27.624C34.8933 25.8554 34.992 24.0607 35.0284 22.1357C35.0284 20.6234 35.0284 19.1547 34.9764 17.7641C34.94 16.7212 34.8776 15.7218 34.7945 14.7919C34.7269 14.0488 34.6697 13.5969 34.6437 13.4491C34.6277 13.2904 34.6868 13.1328 34.8083 13.0101C34.9298 12.8874 35.1041 12.8095 35.2936 12.793H35.3768C35.5539 12.7994 35.7229 12.8571 35.8548 12.9562C35.9866 13.0553 36.0731 13.1896 36.0995 13.3361C36.1255 13.5013 36.1775 13.9619 36.2451 14.7049C36.3127 15.448 36.3907 16.4431 36.4375 17.725C36.4999 19.1069 36.5155 20.593 36.4843 22.153C36.4531 23.9651 36.3543 25.838 36.1983 27.7196C36.1815 27.8725 36.097 28.0147 35.9615 28.1183C35.8259 28.222 35.6489 28.2797 35.4652 28.2801L35.356 28.2758Z" fill="#2F2F2F"/>
<path d="M23.2935 35.4719H23.148C22.963 35.4412 22.799 35.3525 22.6898 35.2241C22.5805 35.0956 22.5342 34.937 22.5604 34.7809C22.7216 33.9118 22.8672 32.9081 23.0076 31.7609C23.1948 30.1921 23.3351 28.5887 23.4287 26.9809C23.5431 24.9168 23.5847 22.718 23.5639 20.4627C23.5639 19.0635 23.5067 17.6773 23.4131 16.3389C23.3507 15.4959 23.2831 14.9179 23.252 14.6659V14.5659C23.1824 13.9984 22.9716 13.4492 22.6332 12.9538C21.9942 12.0048 20.939 11.3006 19.6904 10.9896C19.2335 10.8742 18.7587 10.8156 18.2813 10.8158C18.0903 10.8158 17.8993 10.8245 17.7094 10.8419C17.0397 10.9019 16.3919 11.0764 15.8064 11.3546C14.6733 11.8878 13.8325 12.7682 13.4615 13.8098C13.2696 14.3461 13.2112 14.9096 13.2899 15.4654V15.5393C13.3159 15.7609 13.3679 16.2476 13.4147 16.9776C13.5031 18.0944 13.5499 19.4763 13.5551 20.8885C13.5551 22.7614 13.4771 24.6734 13.3107 26.5724C13.1808 28.1411 12.978 29.7663 12.7076 31.4045C12.5984 32.0954 12.4684 32.7864 12.3332 33.4686V33.5294C12.2946 33.6606 12.2055 33.7776 12.0797 33.8624C11.9538 33.9471 11.7981 33.9951 11.6365 33.9988H11.5117C11.3179 33.9724 11.1443 33.8834 11.0282 33.7511C10.9217 33.6249 10.877 33.4694 10.9034 33.3165C11.0178 32.7212 11.1322 32.1259 11.231 31.5305C11.5013 29.9401 11.7197 28.2497 11.8705 26.5159C12.0213 24.7821 12.1045 22.8961 12.1045 20.9103C12.1045 19.6066 12.0577 18.303 11.9745 17.095C11.9173 16.265 11.8549 15.7653 11.8393 15.6479C11.7375 14.9182 11.8154 14.1789 12.0681 13.4752C12.3067 12.8066 12.6967 12.1826 13.2171 11.6371C13.7379 11.0935 14.3808 10.6404 15.1097 10.303C15.866 9.95104 16.6984 9.72801 17.5586 9.64688C17.7986 9.62435 18.0399 9.61275 18.2813 9.61212C19.7462 9.61209 21.1674 10.029 22.3109 10.7941C22.9661 11.2334 23.5149 11.7732 23.9279 12.3845C24.3485 13.0111 24.6104 13.7034 24.6974 14.4182C24.6974 14.4573 24.8014 15.1048 24.8794 16.2737C24.947 17.1428 25.0301 18.5724 25.0457 20.4844C25.0457 22.8831 25.0093 25.0384 24.9054 27.0634C24.8118 28.6582 24.6766 30.2269 24.505 31.7217C24.3906 32.6517 24.2294 33.864 24.0215 34.9765C23.9896 35.1176 23.899 35.2447 23.7658 35.3353C23.6326 35.426 23.4653 35.4744 23.2935 35.4719Z" fill="#2F2F2F"/>
<path d="M22.3889 41.6771C21.9529 41.6752 21.5174 41.6549 21.0838 41.6163C18.0682 41.1296 16.9867 39.0482 16.6228 37.3882C16.3904 36.2933 16.3606 35.1751 16.5344 34.0726V34.0248C16.532 34.006 16.532 33.9871 16.5344 33.9683C16.628 33.3643 16.7371 32.543 16.8567 31.5957C17.0127 30.4051 17.1791 29.0232 17.3247 27.5979C17.6575 24.5257 17.8446 22.1096 17.8446 20.6148C17.8446 18.8114 17.7562 17.3992 17.6886 16.5301C17.6314 15.8087 17.5795 15.3351 17.5587 15.1482V14.9831C17.5577 14.8329 17.6238 14.6878 17.744 14.5761C17.8641 14.4644 18.0298 14.3942 18.2086 14.3791C18.3988 14.3676 18.5873 14.4168 18.7359 14.5167C18.8844 14.6167 18.9822 14.7601 19.0093 14.9179C19.0093 14.9179 19.0769 15.4741 19.1549 16.4518C19.2537 17.8294 19.3056 19.1895 19.316 20.6017C19.316 22.6093 19.238 24.6691 19.0665 26.7375C18.9313 28.3019 18.7285 29.914 18.4789 31.5175C18.349 32.3866 18.193 33.2557 18.011 34.1682V34.2204V34.2769C18.011 34.2769 18.011 34.2769 18.011 34.3029C17.8763 35.2546 17.9061 36.2176 18.0994 37.1622C18.5101 39.0221 19.5968 40.1171 21.3334 40.4039C21.7025 40.443 22.074 40.4633 22.4461 40.4648C24.8066 40.4648 25.8725 39.5957 26.4704 38.9525C27.6247 37.6967 28.2746 35.6326 28.4982 32.4865V32.3127L28.5346 31.7869C28.6125 31.222 28.6905 30.6528 28.7529 30.1009C28.8153 29.549 28.8881 28.958 28.9453 28.3931C29.0597 27.2546 29.1481 26.1074 29.2157 24.982C29.3093 23.2177 29.3405 21.4143 29.3093 19.4589C29.3093 18.19 29.2313 16.9429 29.1325 15.6523C29.0597 14.7354 28.9921 14.1575 28.9661 13.9967C28.8197 12.8892 28.4302 11.8138 27.817 10.8245C26.6194 8.89324 24.6187 7.39424 22.1913 6.60942C21.3389 6.32945 20.4452 6.14674 19.5344 6.06624C19.1202 6.02584 18.7036 6.00408 18.2866 6.00105L17.1375 6.0532C16.4198 6.11812 15.7112 6.24035 15.0214 6.41822C14.3556 6.59591 13.7115 6.82579 13.0976 7.1048C12.5639 7.35923 12.0561 7.6499 11.5794 7.97389L11.3922 8.08687C10.8387 8.47823 10.3336 8.91495 9.88437 9.3905C9.4281 9.84837 9.02261 10.34 8.67291 10.8593C8.35465 11.3806 8.09697 11.9263 7.90341 12.4888C7.70828 13.0476 7.5794 13.621 7.51865 14.2009C7.4608 14.7797 7.46951 15.3617 7.54465 15.9391C7.5397 15.994 7.5397 16.0492 7.54465 16.1042C7.54465 16.3128 7.60184 16.7126 7.63823 17.2471C7.69023 17.9554 7.74743 19.1026 7.75783 20.5626C7.75783 22.2487 7.70063 23.8434 7.58104 25.4295C7.44066 27.3676 7.20149 29.3144 6.87392 31.2133C6.8692 31.261 6.8692 31.309 6.87392 31.3567C6.8436 31.5026 6.7532 31.635 6.61837 31.731C6.48353 31.8271 6.31275 31.8806 6.13561 31.8825H6.07322C5.97928 31.871 5.88903 31.844 5.80778 31.8029C5.72653 31.7619 5.65591 31.7077 5.60008 31.6435C5.49179 31.5178 5.44358 31.3628 5.4649 31.209C5.80286 29.2666 6.04203 27.2981 6.17721 25.373C6.2968 23.8608 6.34879 22.3312 6.34879 20.5931C6.34879 19.0765 6.2812 17.9858 6.2344 17.334C6.20321 16.7691 6.15641 16.2606 6.13042 16.1086C6.055 15.4408 6.055 14.7687 6.13042 14.101C6.20177 13.4419 6.34801 12.7901 6.56716 12.1542C6.78887 11.5159 7.08492 10.8974 7.45106 10.3074C7.46846 10.2791 7.48755 10.2515 7.50825 10.2248C7.54984 10.1683 7.59145 10.1118 7.62784 10.0554C8.34419 8.95915 9.30005 7.98488 10.4459 7.18302C11.6682 6.32295 13.0818 5.67317 14.6054 5.27102C15.371 5.06034 16.1601 4.91476 16.9607 4.83648L17.673 4.78433H18.3334C19.831 4.78797 21.3151 5.02218 22.7112 5.47526C23.2312 5.64808 23.7367 5.84987 24.2243 6.07927C25.0125 6.44495 25.75 6.88213 26.4236 7.38291C27.5211 8.19812 28.4304 9.17461 29.1065 10.2639C29.804 11.3873 30.2482 12.6085 30.4167 13.8663V14.0097C30.4479 14.2748 30.5103 14.8136 30.5727 15.5741C30.6715 16.8777 30.7287 18.1466 30.7547 19.4459C30.7859 21.3839 30.7547 23.2134 30.6455 25.0298C30.5155 27.3328 30.2867 29.649 29.9592 31.926C29.7772 35.6283 29.0025 38.1486 27.5883 39.6913C26.3508 41.0297 24.661 41.6771 22.3889 41.6771Z" fill="#2F2F2F"/>
<path d="M0.681459 26.2248C0.492979 26.2147 0.316556 26.1438 0.189463 26.027C0.0623705 25.9103 -0.00543964 25.7568 0.000341484 25.599L0.333101 16.7647C0.343822 16.6034 0.428831 16.4517 0.570333 16.3415C0.711834 16.2314 0.898848 16.1713 1.09221 16.1738C1.28345 16.1805 1.4638 16.25 1.59421 16.3671C1.72461 16.4842 1.79456 16.6396 1.78892 16.7995L1.45616 25.6338C1.45342 25.7921 1.37591 25.943 1.24052 26.0537C1.10513 26.1644 0.922855 26.2259 0.733448 26.2248H0.681459Z" fill="#2F2F2F"/>
</svg>
