<svg width="73" height="92" viewBox="0 0 73 92" fill="none" xmlns="http://www.w3.org/2000/svg">
<path d="M3.41133 25.692C3.18414 25.6897 2.96058 25.6399 2.75806 25.5465C2.55553 25.453 2.37949 25.3183 2.24366 25.153C2.10782 24.9876 2.01584 24.7961 1.97488 24.5932C1.93392 24.3903 1.94508 24.1816 2.00749 23.9832C2.65881 21.956 3.52962 19.9922 4.60718 18.1207C5.70096 16.2113 6.99649 14.4028 8.47552 12.7208C9.96083 11.0492 11.6144 9.50694 13.4149 8.11387C15.2111 6.75271 17.1473 5.55139 19.1966 4.5265C21.233 3.5002 23.3793 2.66512 25.6023 2.03423C27.8652 1.39457 30.1918 0.958216 32.5486 0.731451L36.6145 0.533203C45.4394 0.545884 53.9513 3.50249 60.5317 8.84078C60.7544 9.01909 60.9118 9.25498 60.9826 9.51679C61.0535 9.77861 61.0344 10.0538 60.928 10.3055C60.8217 10.5572 60.633 10.7734 60.3875 10.925C60.1419 11.0766 59.8511 11.1564 59.5542 11.1537C59.1963 11.1547 58.851 11.0334 58.5871 10.8138C58.088 10.4079 57.5472 10.0397 57.0481 9.6621C51.2324 5.45317 44.0105 3.16893 36.5729 3.18596L33.027 3.36533C30.822 3.58278 28.6454 3.99378 26.5277 4.59259C24.4893 5.184 22.5183 5.95222 20.6421 6.88661C18.733 7.81498 16.9318 8.91563 15.2659 10.1719C13.5891 11.4368 12.0625 12.8574 10.7112 14.4106C8.42669 16.9646 6.64647 19.8583 5.44947 22.9637C5.1999 23.5584 4.95033 24.1626 4.76315 24.7574C4.67682 25.0235 4.49914 25.2577 4.25599 25.4258C4.01283 25.5939 3.71692 25.6872 3.41133 25.692Z" fill="white"/>
<path d="M70.7125 61.9621C70.3478 61.9108 70.0178 61.7365 69.7884 61.474C69.559 61.2115 69.4471 60.8802 69.475 60.5461C69.787 56.7038 69.9846 52.8049 70.0574 48.6228C70.0574 45.3375 70.0574 42.1466 69.9534 39.1257C69.8806 36.86 69.7558 34.6887 69.5894 32.6684C69.4542 31.0541 69.3399 30.0723 69.2879 29.7513C69.2559 29.4065 69.3741 29.0641 69.6171 28.7976C69.8601 28.531 70.2086 28.3617 70.5877 28.3258H70.7541C71.1084 28.3397 71.4464 28.4651 71.7101 28.6804C71.9738 28.8957 72.1468 29.1875 72.1995 29.5059C72.2515 29.8646 72.3555 30.8653 72.4907 32.4796C72.6259 34.0939 72.7819 36.2558 72.8755 39.0407C73.0002 42.0428 73.0314 45.2714 72.969 48.6605C72.9067 52.5972 72.7091 56.666 72.3971 60.7537C72.3635 61.086 72.1946 61.3949 71.9234 61.6201C71.6523 61.8453 71.2984 61.9706 70.9309 61.9716L70.7125 61.9621Z" fill="white"/>
<path d="M46.5871 77.5955H46.2959C45.9259 77.5289 45.598 77.3363 45.3795 77.0571C45.161 76.778 45.0685 76.4336 45.1208 76.0945C45.4432 74.2064 45.7344 72.0257 46.0151 69.5334C46.3895 66.1254 46.6703 62.6418 46.8574 59.1489C47.0862 54.6647 47.1694 49.8878 47.1278 44.9882C47.1278 41.9484 47.0134 38.9369 46.8262 36.0292C46.7015 34.1978 46.5663 32.9422 46.5039 32.3947V32.1775C46.3648 30.9445 45.9433 29.7516 45.2664 28.6751C43.9884 26.6136 41.878 25.0835 39.3807 24.4081C38.4669 24.1573 37.5174 24.03 36.5627 24.0304C36.1805 24.0305 35.7987 24.0494 35.4188 24.0871C34.0794 24.2174 32.7839 24.5966 31.6129 25.201C29.3466 26.3594 27.665 28.272 26.923 30.5349C26.5392 31.7 26.4225 32.9241 26.5799 34.1317V34.2922C26.6319 34.7737 26.7358 35.831 26.8294 37.417C27.0062 39.8432 27.0998 42.8452 27.1102 45.9134C27.1102 49.9822 26.9542 54.136 26.6215 58.2615C26.3615 61.6695 25.9559 65.2002 25.4152 68.7593C25.1968 70.2603 24.9369 71.7613 24.6665 73.2435V73.3756C24.5892 73.6606 24.411 73.9147 24.1593 74.0989C23.9076 74.2831 23.5962 74.3872 23.2731 74.3952H23.0235C22.6359 74.3379 22.2886 74.1447 22.0564 73.8571C21.8433 73.583 21.754 73.2451 21.8068 72.9131C22.0356 71.6197 22.2644 70.3264 22.462 69.033C23.0027 65.5778 23.4394 61.9055 23.741 58.1388C24.0426 54.372 24.209 50.2749 24.209 45.9606C24.209 43.1285 24.1154 40.2963 23.949 37.6719C23.8346 35.8687 23.7098 34.7831 23.6786 34.5282C23.4751 32.9429 23.6308 31.3366 24.1362 29.808C24.6133 28.3555 25.3935 26.9998 26.4343 25.8147C27.4758 24.6338 28.7617 23.6493 30.2194 22.9165C31.732 22.1517 33.3968 21.6672 35.1172 21.491C35.5972 21.442 36.0797 21.4168 36.5627 21.4154C39.4923 21.4154 42.3347 22.321 44.6217 23.9832C45.9322 24.9376 47.0298 26.1103 47.8557 27.4384C48.6969 28.7998 49.2208 30.3036 49.3947 31.8566C49.3947 31.9415 49.6027 33.3482 49.7587 35.8876C49.8939 37.7757 50.0602 40.8816 50.0914 45.0354C50.0914 50.2465 50.0187 54.929 49.8107 59.3283C49.6235 62.7929 49.3531 66.2009 49.01 69.4484C48.7812 71.4687 48.4588 74.1025 48.0429 76.5193C47.9791 76.8258 47.798 77.102 47.5316 77.2989C47.2652 77.4959 46.9306 77.6009 46.5871 77.5955Z" fill="white"/>
<path d="M44.7778 91.0764C43.9058 91.0722 43.0347 91.028 42.1677 90.9443C36.1364 89.887 33.9734 85.365 33.2455 81.7587C32.7809 79.3801 32.7213 76.9508 33.0687 74.5557V74.4518C33.064 74.411 33.064 74.3699 33.0687 74.3291C33.2559 73.0169 33.4743 71.2327 33.7135 69.1746C34.0254 66.588 34.3582 63.5859 34.6494 60.4894C35.3149 53.815 35.6893 48.5662 35.6893 45.3187C35.6893 41.4009 35.5125 38.3327 35.3773 36.4446C35.2629 34.8775 35.1589 33.8485 35.1173 33.4426V33.0838C35.1155 32.7576 35.2476 32.4423 35.488 32.1997C35.7283 31.9571 36.0596 31.8045 36.4171 31.7716C36.7977 31.7466 37.1745 31.8535 37.4717 32.0707C37.7689 32.288 37.9643 32.5994 38.0186 32.9422C38.0186 32.9422 38.1537 34.1506 38.3097 36.2747C38.5073 39.2673 38.6113 42.2222 38.6321 45.2903C38.6321 49.6518 38.4761 54.1266 38.1329 58.6202C37.8626 62.0188 37.457 65.5212 36.9579 69.0047C36.6979 70.8928 36.3859 72.7809 36.022 74.7634V74.8767V74.9994C36.022 74.9994 36.022 74.9994 36.022 75.056C35.7526 77.1236 35.8121 79.2156 36.1988 81.2678C37.0203 85.3083 39.1936 87.6873 42.6668 88.3104C43.405 88.3952 44.1481 88.4393 44.8921 88.4426C49.6132 88.4426 51.7449 86.5545 52.9408 85.1573C55.2493 82.429 56.5492 77.9448 56.9963 71.1099V70.7323L57.0691 69.59C57.2251 68.3628 57.381 67.1261 57.5058 65.9271C57.6306 64.7282 57.7762 63.4443 57.8906 62.217C58.1194 59.7436 58.2962 57.2514 58.4313 54.8063C58.6185 50.9735 58.6809 47.0557 58.6185 42.8075C58.6185 40.0509 58.4625 37.3415 58.2649 34.5377C58.1194 32.5457 57.9842 31.2902 57.9322 30.9409C57.6394 28.5349 56.8603 26.1987 55.6341 24.0493C53.2387 19.8537 49.2374 16.5972 44.3826 14.8921C42.6778 14.2839 40.8904 13.887 39.0688 13.7121C38.2403 13.6243 37.4072 13.577 36.5731 13.5705L34.275 13.6837C32.8396 13.8248 31.4223 14.0903 30.0427 14.4767C28.7113 14.8628 27.4231 15.3622 26.1952 15.9683C25.1277 16.5211 24.1122 17.1526 23.1587 17.8564L22.7844 18.1019C21.6775 18.9521 20.6672 19.9009 19.7687 20.934C18.8562 21.9287 18.0452 22.9967 17.3458 24.1249C16.7093 25.2575 16.1939 26.443 15.8068 27.665C15.4165 28.879 15.1588 30.1248 15.0373 31.3846C14.9216 32.6419 14.939 33.9064 15.0893 35.1607C15.0794 35.2802 15.0794 35.4001 15.0893 35.5195C15.0893 35.9726 15.2037 36.8411 15.2765 38.0023C15.3805 39.5411 15.4949 42.0334 15.5157 45.2054C15.5157 48.8683 15.4013 52.3329 15.1621 55.7787C14.8813 59.9891 14.403 64.2184 13.7478 68.3439C13.7384 68.4475 13.7384 68.5517 13.7478 68.6554C13.6872 68.9723 13.5064 69.26 13.2367 69.4686C12.9671 69.6772 12.6255 69.7936 12.2712 69.7977H12.1464C11.9586 69.7728 11.7781 69.714 11.6156 69.6248C11.4531 69.5357 11.3118 69.4179 11.2002 69.2785C10.9836 69.0054 10.8872 68.6687 10.9298 68.3344C11.6057 64.1146 12.0841 59.838 12.3544 55.6559C12.5936 52.3707 12.6976 49.0476 12.6976 45.2715C12.6976 41.9767 12.5624 39.6072 12.4688 38.1911C12.4064 36.9639 12.3128 35.8593 12.2608 35.5289C12.11 34.0783 12.11 32.618 12.2608 31.1674C12.4035 29.7357 12.696 28.3195 13.1343 26.9381C13.5777 25.5515 14.1698 24.2077 14.9021 22.9259C14.9369 22.8644 14.9751 22.8046 15.0165 22.7466C15.0997 22.6238 15.1829 22.5011 15.2557 22.3784C16.6884 19.9969 18.6001 17.8803 20.8918 16.1383C23.3364 14.2698 26.1635 12.8581 29.2108 11.9845C30.7421 11.5268 32.3203 11.2105 33.9214 11.0404L35.3461 10.9271H36.6667C39.6621 10.935 42.6302 11.4439 45.4225 12.4282C46.4624 12.8036 47.4733 13.242 48.4485 13.7404C50.0249 14.5348 51.5001 15.4846 52.8472 16.5725C55.0422 18.3436 56.8608 20.465 58.2129 22.8315C59.6081 25.2721 60.4964 27.925 60.8334 30.6576V30.9692C60.8958 31.5451 61.0206 32.7157 61.1454 34.3677C61.343 37.1999 61.4574 39.9565 61.5094 42.7792C61.5718 46.9896 61.5094 50.964 61.291 54.9101C61.031 59.9136 60.5735 64.9453 59.9183 69.8921C59.5544 77.9354 58.005 83.4108 55.1765 86.7622C52.7016 89.6698 49.322 91.0764 44.7778 91.0764Z" fill="white"/>
<path d="M1.36292 57.5063C0.985962 57.4844 0.633115 57.3303 0.378928 57.0767C0.124742 56.823 -0.0108793 56.4896 0.000682971 56.1468L0.666206 36.9544C0.687647 36.6038 0.857666 36.2744 1.14067 36.0351C1.42367 35.7957 1.7977 35.6651 2.18442 35.6705C2.56692 35.6853 2.92762 35.8362 3.18843 36.0906C3.44923 36.3451 3.58914 36.6825 3.57786 37.0299L2.91234 56.2224C2.90686 56.5662 2.75182 56.8942 2.48105 57.1347C2.21027 57.3752 1.84572 57.5088 1.4669 57.5063H1.36292Z" fill="white"/>
</svg>
