<svg width="90" height="90" viewBox="0 0 90 90" fill="none" xmlns="http://www.w3.org/2000/svg">
<rect width="90" height="90" fill="#F9F9F9"/>
<path fill-rule="evenodd" clip-rule="evenodd" d="M60.085 38.0076C61.1407 38.0088 62.0863 38.6611 62.4625 39.6475C62.5603 39.9043 62.6412 40.1695 62.7048 40.4421C62.8125 40.9039 63.3421 41.1232 63.7448 40.8729C68.9456 37.6398 74.949 43.6431 71.7159 48.8439C71.4655 49.2467 71.6849 49.7762 72.1467 49.884C78.1103 51.2753 78.1103 59.7653 72.1467 61.1567C71.6849 61.2645 71.4655 61.794 71.7159 62.1968C74.949 67.3975 68.9456 73.4009 63.7448 70.1678C63.3421 69.9174 62.8126 70.1368 62.7048 70.5986C61.3134 76.5622 52.8234 76.5622 51.432 70.5986C51.3243 70.1368 50.7947 69.9174 50.392 70.1678C45.1912 73.4009 39.1879 67.3975 42.421 62.1968C42.6713 61.794 42.452 61.2645 41.9902 61.1567M60.085 38.0076C59.0293 38.0063 58.0821 38.6564 57.7037 39.6419L60.085 38.0076ZM57.7037 39.6419C57.5312 40.0911 57.1776 40.4801 56.4953 40.6392L57.7037 39.6419ZM59.7144 44.7679C59.1068 45.1371 58.4181 45.4227 57.653 45.6012C56.6104 45.8445 56.0644 46.9516 56.4371 47.9033C56.6455 47.8862 56.8561 47.8775 57.0684 47.8775C61.2895 47.8775 64.7113 51.2993 64.7113 55.5203C64.7113 59.7414 61.2895 63.1632 57.0684 63.1632C53.9414 63.1632 51.2541 61.2862 50.0703 58.5965C49.0998 58.4877 48.1209 58.1591 47.19 57.5804C46.6897 57.2694 46.1108 57.2497 45.623 57.4508C47.6766 59.2318 48.32 62.3583 46.7482 64.8868C46.6148 65.1014 46.6132 65.2447 46.6274 65.3382C46.6458 65.4589 46.7133 65.6087 46.8467 65.7421C46.9801 65.8755 47.1298 65.943 47.2505 65.9614C47.3441 65.9756 47.4874 65.9739 47.702 65.8406C51.0678 63.7482 55.4935 65.5814 56.394 69.4409C56.4514 69.687 56.5516 69.7895 56.6278 69.8456C56.7261 69.9179 56.8797 69.9761 57.0684 69.9761C57.2571 69.9761 57.4107 69.9179 57.509 69.8456C57.5853 69.7895 57.6854 69.687 57.7428 69.4409C58.6433 65.5814 63.069 63.7482 66.4349 65.8405C66.6495 65.9739 66.7928 65.9756 66.8863 65.9614C67.007 65.943 67.1568 65.8755 67.2902 65.7421C67.4236 65.6087 67.4911 65.4589 67.5094 65.3382C67.5237 65.2447 67.522 65.1014 67.3886 64.8868C65.2963 61.5209 67.1294 57.0952 70.989 56.1948C71.235 56.1373 71.3376 56.0372 71.3936 55.961C71.466 55.8626 71.5242 55.709 71.5242 55.5203C71.5242 55.3317 71.466 55.1781 71.3936 55.0797C71.3376 55.0035 71.2351 54.9033 70.989 54.8459C67.1294 53.9455 65.2963 49.5197 67.3886 46.1539C67.522 45.9393 67.5237 45.796 67.5094 45.7024C67.4911 45.5818 67.4236 45.432 67.2902 45.2986C67.1568 45.1652 67.007 45.0977 66.8863 45.0793C66.7928 45.0651 66.6495 45.0667 66.4349 45.2001C64.2178 46.5784 61.5408 46.2534 59.7144 44.7679ZM56.4953 40.6392C51.9483 41.7001 49.7886 46.9142 52.2536 50.8796L56.4953 40.6392ZM57.0684 52.9727C56.6919 52.9727 56.3409 53.0528 56.0259 53.1944C55.3326 53.5061 54.5364 53.492 53.8546 53.1558C53.1728 52.8196 52.6768 52.1966 52.5019 51.4568C52.4621 51.2884 52.3873 51.0945 52.2536 50.8796M57.0684 52.9727C58.4754 52.9727 59.616 54.1133 59.616 55.5203L57.0684 52.9727ZM39.6397 57.4949C40.7006 52.9478 45.9146 50.7881 49.88 53.2532C50.4079 53.5813 50.8652 53.591 51.2455 53.4751C51.9852 53.2497 52.7872 53.3725 53.4256 53.8088C54.064 54.2452 54.4697 54.9479 54.5283 55.7189C54.6281 57.0318 55.7285 58.068 57.0684 58.068C58.4754 58.068 59.616 56.9274 59.616 55.5203M39.6397 57.4949L41.6455 57.9628L39.6397 57.4949ZM41.9902 61.1567C41.6546 61.0784 41.3304 60.974 41.0197 60.8441C39.7915 60.3304 39.1659 58.9576 39.584 57.6936C39.6043 57.6322 39.6231 57.5661 39.6397 57.4949L41.6455 57.9628" fill="#BAE047"/>
<path d="M60.085 38.0076C61.1407 38.0088 62.0863 38.6611 62.4625 39.6475C62.5603 39.9043 62.6412 40.1695 62.7048 40.4421C62.8126 40.9039 63.3421 41.1232 63.7448 40.8729C68.9456 37.6398 74.949 43.6431 71.7159 48.8439C71.4655 49.2467 71.6849 49.7762 72.1467 49.884C78.1103 51.2753 78.1103 59.7653 72.1467 61.1567C71.6849 61.2645 71.4655 61.794 71.7159 62.1968C74.949 67.3975 68.9456 73.4009 63.7448 70.1678C63.3421 69.9174 62.8126 70.1368 62.7048 70.5986C61.3134 76.5622 52.8234 76.5622 51.432 70.5986C51.3243 70.1368 50.7947 69.9174 50.392 70.1678C45.1912 73.4009 39.1879 67.3975 42.421 62.1968C42.6713 61.794 42.452 61.2645 41.9902 61.1567M60.085 38.0076C59.0293 38.0063 58.0822 38.6564 57.7037 39.6419M60.085 38.0076L57.7037 39.6419M60.085 38.0076L51.2455 50.8796L41.9902 61.1567M41.9902 61.1567C41.6546 61.0784 41.3304 60.974 41.0197 60.8441C39.7915 60.3304 39.1659 58.9576 39.584 57.6936C39.6043 57.6322 39.6231 57.5661 39.6397 57.4949M41.9902 61.1567L41.6455 57.9628L39.6397 57.4949M57.7037 39.6419C57.5312 40.0911 57.1776 40.4801 56.4953 40.6392M57.7037 39.6419L56.4953 40.6392M56.4953 40.6392C51.9483 41.7001 49.7886 46.9142 52.2536 50.8796M56.4953 40.6392L52.2536 50.8796M47.19 57.5804C48.1209 58.1591 49.0998 58.4877 50.0703 58.5965C51.2541 61.2862 53.9414 63.1632 57.0684 63.1632C61.2895 63.1632 64.7113 59.7414 64.7113 55.5203C64.7113 51.2993 61.2895 47.8775 57.0684 47.8775C56.8561 47.8775 56.6455 47.8862 56.4371 47.9033C56.0644 46.9516 56.6104 45.8445 57.653 45.6012C58.4181 45.4227 59.1068 45.1371 59.7144 44.7679C61.5408 46.2534 64.2178 46.5784 66.4349 45.2001C66.6495 45.0667 66.7928 45.0651 66.8863 45.0793C67.007 45.0977 67.1568 45.1652 67.2902 45.2986C67.4236 45.432 67.4911 45.5818 67.5094 45.7024C67.5237 45.796 67.522 45.9393 67.3886 46.1539C65.2963 49.5197 67.1294 53.9455 70.989 54.8459C71.235 54.9033 71.3376 55.0035 71.3936 55.0797C71.466 55.1781 71.5242 55.3317 71.5242 55.5203C71.5242 55.709 71.466 55.8626 71.3936 55.961C71.3376 56.0372 71.235 56.1373 70.989 56.1948C67.1294 57.0952 65.2963 61.5209 67.3886 64.8868C67.522 65.1014 67.5237 65.2447 67.5094 65.3382C67.4911 65.4589 67.4236 65.6087 67.2902 65.7421C67.1568 65.8755 67.007 65.943 66.8863 65.9614C66.7928 65.9756 66.6495 65.9739 66.4349 65.8405C63.069 63.7482 58.6433 65.5814 57.7428 69.4409C57.6854 69.687 57.5853 69.7895 57.509 69.8456C57.4107 69.9179 57.2571 69.9761 57.0684 69.9761C56.8797 69.9761 56.7261 69.9179 56.6278 69.8456C56.5516 69.7895 56.4514 69.687 56.394 69.4409C55.4935 65.5814 51.0678 63.7482 47.702 65.8406C47.4874 65.9739 47.3441 65.9756 47.2505 65.9614C47.1298 65.943 46.9801 65.8755 46.8467 65.7421C46.7133 65.6087 46.6458 65.4589 46.6274 65.3382C46.6132 65.2447 46.6148 65.1014 46.7482 64.8868C48.32 62.3583 47.6766 59.2318 45.623 57.4508C46.1108 57.2497 46.6897 57.2694 47.19 57.5804ZM47.19 57.5804L48.2538 55.8692M52.2536 50.8796C52.3873 51.0945 52.4621 51.2884 52.5019 51.4568C52.6768 52.1966 53.1728 52.8196 53.8546 53.1558C54.5364 53.492 55.3326 53.5061 56.0259 53.1944C56.3409 53.0528 56.6919 52.9727 57.0684 52.9727M52.2536 50.8796L57.0684 52.9727M57.0684 52.9727C58.4754 52.9727 59.616 54.1133 59.616 55.5203M57.0684 52.9727L59.616 55.5203M59.616 55.5203C59.616 56.9274 58.4754 58.068 57.0684 58.068C55.7285 58.068 54.6281 57.0318 54.5283 55.7189C54.4697 54.9479 54.064 54.2452 53.4256 53.8088C52.7872 53.3725 51.9852 53.2497 51.2455 53.4751C50.8652 53.591 50.4079 53.5813 49.88 53.2532C45.9146 50.7881 40.7006 52.9478 39.6397 57.4949M59.616 55.5203L39.6397 57.4949" stroke="#F9F9F9" stroke-width="2" stroke-linecap="round" stroke-linejoin="round"/>
<path fill-rule="evenodd" clip-rule="evenodd" d="M31.3208 19.2694C32.96 12.2435 42.9623 12.2435 44.6015 19.2694C44.8697 20.4187 46.1875 20.9646 47.1898 20.3415C53.317 16.5326 60.3897 23.6053 56.5807 29.7325C55.9577 30.7347 56.5035 32.0526 57.6528 32.3208C64.6787 33.96 64.6787 43.9623 57.6528 45.6015C56.5035 45.8697 55.9577 47.1875 56.5807 48.1898C60.3897 54.317 53.317 61.3897 47.1898 57.5807C46.1875 56.9577 44.8697 57.5035 44.6015 58.6528C42.9623 65.6787 32.96 65.6787 31.3208 58.6528C31.0526 57.5035 29.7347 56.9577 28.7325 57.5807C22.6053 61.3897 15.5326 54.317 19.3415 48.1898C19.9646 47.1875 19.4187 45.8697 18.2694 45.6015C11.2435 43.9623 11.2435 33.96 18.2694 32.3208C19.4187 32.0526 19.9646 30.7347 19.3415 29.7325C15.5326 23.6053 22.6053 16.5326 28.7325 20.3415C29.7347 20.9646 31.0526 20.4187 31.3208 19.2694ZM39.6395 20.4271C39.2252 18.6513 36.6971 18.6513 36.2827 20.4271C35.2219 24.9742 30.0078 27.1339 26.0424 24.6688C24.4937 23.7061 22.7061 25.4937 23.6688 27.0424C26.1339 31.0078 23.9742 36.2219 19.4271 37.2827C17.6513 37.6971 17.6513 40.2252 19.4271 40.6395C23.9742 41.7004 26.1339 46.9145 23.6688 50.8799C22.7061 52.4286 24.4937 54.2162 26.0424 53.2535C30.0078 50.7884 35.2219 52.9481 36.2827 57.4952C36.6971 59.271 39.2252 59.271 39.6395 57.4952C40.7004 52.9481 45.9145 50.7884 49.8799 53.2535C51.4285 54.2162 53.2162 52.4285 52.2535 50.8799C49.7884 46.9145 51.9481 41.7004 56.4952 40.6395C58.271 40.2252 58.271 37.6971 56.4952 37.2827C51.9481 36.2219 49.7884 31.0078 52.2535 27.0424C53.2162 25.4937 51.4285 23.7061 49.8799 24.6688C45.9145 27.1339 40.7004 24.9742 39.6395 20.4271Z" fill="black" stroke="#F9F9F9" stroke-width="2" stroke-linecap="round" stroke-linejoin="round"/>
<path fill-rule="evenodd" clip-rule="evenodd" d="M37.9611 35.1399C35.8506 35.1399 34.1397 36.8508 34.1397 38.9613C34.1397 41.0719 35.8506 42.7828 37.9611 42.7828C40.0716 42.7828 41.7825 41.0719 41.7825 38.9613C41.7825 36.8508 40.0716 35.1399 37.9611 35.1399ZM29.0444 38.9613C29.0444 34.0368 33.0366 30.0447 37.9611 30.0447C42.8856 30.0447 46.8778 34.0368 46.8778 38.9613C46.8778 43.8859 42.8856 47.878 37.9611 47.878C33.0366 47.878 29.0444 43.8859 29.0444 38.9613Z" fill="#BAE047" stroke="#F9F9F9" stroke-width="2" stroke-linecap="round" stroke-linejoin="round"/>
</svg>
