<svg width="90" height="90" viewBox="0 0 90 90" fill="none" xmlns="http://www.w3.org/2000/svg">
<rect width="90" height="90" fill="#F9F9F9"/>
<path fill-rule="evenodd" clip-rule="evenodd" d="M66.4688 20C67.7961 20 68.8721 21.076 68.8721 22.4033L68.8721 29.6131C68.8721 30.9404 67.7961 32.0164 66.4688 32.0164L18.4034 32.0164C17.0761 32.0164 16.0001 30.9404 16.0001 29.6131L16.0001 22.4033C16.0001 21.076 17.0761 20 18.4034 20L66.4688 20ZM64.0655 24.8065L20.8066 24.8065L20.8066 27.2098L64.0655 27.2098L64.0655 24.8065Z" fill="#222831" stroke="#F9F9F9" stroke-width="1.5" stroke-linecap="round" stroke-linejoin="round"/>
<path fill-rule="evenodd" clip-rule="evenodd" d="M16 29.6132C16 28.2859 17.076 27.21 18.4033 27.21H71.2753C72.6026 27.21 73.6785 28.2859 73.6785 29.6132V68.0656C73.6785 69.3929 72.6026 70.4689 71.2753 70.4689H18.4033C17.076 70.4689 16 69.3929 16 68.0656V29.6132ZM20.8065 32.0165V65.6623H68.872V32.0165H20.8065Z" fill="#222831" stroke="#F9F9F9" stroke-width="1.5" stroke-linecap="round" stroke-linejoin="round"/>
<path d="M63.3152 48.8393C63.3152 51.0796 61.4991 52.8958 59.2587 52.8958C57.0183 52.8958 55.2021 51.0796 55.2021 48.8393C55.2021 46.5989 57.0183 44.7827 59.2587 44.7827C61.4991 44.7827 63.3152 46.5989 63.3152 48.8393Z" fill="#BAE047" stroke="#F9F9F9" stroke-width="1.5"/>
</svg>
